<svg width="100" height="101" viewBox="0 0 100 101" fill="none" xmlns="http://www.w3.org/2000/svg"><path d="M12.963 28.2072C21.115 12.0988 40.782 5.64902 56.8902 13.8011C72.9987 21.9532 79.4484 41.6202 71.2963 57.7284C63.1443 73.8368 43.4773 80.2865 27.369 72.1345C11.2607 63.9824 4.81088 44.3154 12.963 28.2072Z" fill="#84D8FF" style="fill:#84D8FF;fill:color(display-p3 0.5178 0.8452 1.0000);fill-opacity:1;"/><path d="M75.2863 59.7317C84.518 41.4903 77.2714 19.2329 59.1059 9.91103L58.9158 9.8148C57.4514 9.07371 56.865 7.28582 57.6061 5.82141C58.3471 4.35707 60.1349 3.77072 61.5993 4.51168L61.8647 4.64596C82.904 15.4728 91.2905 41.2703 80.5893 62.4154C74.4996 74.4488 63.535 82.3932 51.3121 85.0627V92.2354H56.7056C58.1952 92.2354 59.4026 93.443 59.4026 94.9324C59.4026 96.422 58.1952 97.6294 56.7056 97.6294H37.8269C36.3373 97.6294 35.1299 96.422 35.1299 94.9324C35.1299 93.443 36.3373 92.2354 37.8269 92.2354H43.2211V86.0432C36.4128 86.2196 29.4656 84.7805 22.9509 81.5385L22.6852 81.4054C21.2208 80.6642 20.6344 78.8764 21.3756 77.412C22.1165 75.9477 23.9045 75.3613 25.3689 76.1022C43.6738 85.366 66.0225 78.0366 75.2863 59.7317Z" fill="#FF9600" style="fill:#FF9600;fill:color(display-p3 1.0000 0.5882 0.0000);fill-opacity:1;"/><path d="M44.5669 75.5737C38.824 76.0065 32.8936 74.9271 27.3804 72.1367C24.7305 70.7958 22.3419 69.1431 20.2368 67.2459C20.0175 65.6635 20.2634 64.0001 21.0438 62.4687C23.0724 58.4873 27.9446 56.9042 31.926 58.9329L41.538 63.8306C45.5194 65.8592 47.1025 70.7312 45.0738 74.7128C44.9206 75.0137 44.7511 75.3008 44.5669 75.5737Z" fill="#58CC02" style="fill:#58CC02;fill:color(display-p3 0.3451 0.8000 0.0078);fill-opacity:1;"/><path d="M74.279 37.0323C75.5329 43.824 74.6531 51.0665 71.2938 57.7044C69.287 61.6698 66.5823 65.05 63.4047 67.7711L60.6046 66.3443C52.6416 62.287 49.4755 52.5426 53.5328 44.5798C57.4186 36.9533 66.521 33.727 74.279 37.0323Z" fill="#58CC02" style="fill:#58CC02;fill:color(display-p3 0.3451 0.8000 0.0078);fill-opacity:1;"/><path d="M49.8322 11.1908C54.4086 13.5857 56.215 19.2248 53.8642 23.8386C51.4975 28.4837 45.8134 30.3306 41.1683 27.9639L40.8542 27.8038C40.7357 30.1626 40.1294 32.535 38.9878 34.7755C34.6528 43.2831 24.2421 46.6657 15.7345 42.331C13.3763 41.1294 11.4119 39.4611 9.89648 37.4958C10.433 34.341 11.4456 31.2121 12.9664 28.2072C19.9564 14.395 35.4126 7.68401 49.8322 11.1908Z" fill="#58CC02" style="fill:#58CC02;fill:color(display-p3 0.3451 0.8000 0.0078);fill-opacity:1;"/><path fill-rule="evenodd" clip-rule="evenodd" d="M35.2537 21.0894C35.5433 22.7318 34.4466 24.298 32.8042 24.5876C31.1875 24.8726 29.072 26.1837 27.136 28.1703C25.1849 30.1725 24.2197 31.9664 23.7964 33.3348C23.4549 34.9672 21.8548 36.0137 20.2224 35.6723C18.59 35.3309 17.5434 33.7307 17.8849 32.0983C18.4539 29.3779 20.5004 26.326 22.8108 23.9552C25.1363 21.5689 28.3402 19.242 31.7555 18.6399C33.3979 18.3503 34.9641 19.447 35.2537 21.0894Z" fill="#ACE284" style="fill:#ACE284;fill:color(display-p3 0.6743 0.8851 0.5180);fill-opacity:1;"/></svg>